<?xml version="1.0" encoding="UTF-8"?>
<svg version="1.1" xmlns="http://www.w3.org/2000/svg" width="360" height="360">
<path d="M0 0 C2.6875 1.4375 2.6875 1.4375 5 3 C4.41255758 10.04205665 2.95142976 16.51325881 1.0625 23.3125 C-2.4269524 35.90339517 -4.33799132 47.65395844 -4.25 60.75 C-4.25773438 61.91660156 -4.26546875 63.08320312 -4.2734375 64.28515625 C-4.25107454 74.15840462 -2.67503518 81.27326767 2 90 C3.68802734 90.05607422 3.68802734 90.05607422 5.41015625 90.11328125 C30.18129844 91.09902173 53.05492109 97.33820422 72 114 C72.75023437 114.65484375 73.50046875 115.3096875 74.2734375 115.984375 C82.83479804 123.97497817 94.35146602 137.82847181 95.3125 149.9375 C95 153 95 153 94 154 C87.77633478 154.41445051 83.13476888 153.32827557 77.3125 151.25 C70.25869317 148.87766863 63.25355671 147.05528166 55.9375 145.6875 C54.67256714 145.44918457 54.67256714 145.44918457 53.38208008 145.20605469 C38.33909834 142.51055141 20.5114971 140.3244524 7 149 C6.34 149 5.68 149 5 149 C5.03480469 150.0415625 5.06960937 151.083125 5.10546875 152.15625 C5.71858937 178.60758064 -2.60985291 202.1106605 -20.56640625 221.81640625 C-26.50703976 228.02745267 -32.53806094 232.76911213 -40 237 C-40.96550781 237.58007812 -41.93101562 238.16015625 -42.92578125 238.7578125 C-51.22662864 243.58780489 -51.22662864 243.58780489 -57 243 C-57.66 242.34 -58.32 241.68 -59 241 C-58.65612603 233.9611104 -56.94222341 227.45360273 -55.0625 220.6875 C-51.53987245 207.97689985 -49.6516936 196.09472325 -49.6875 182.875 C-49.67138672 181.67746094 -49.65527344 180.47992188 -49.63867188 179.24609375 C-49.63469864 171.99097558 -50.30081911 165.75952129 -53 159 C-53.39703125 157.98164063 -53.7940625 156.96328125 -54.203125 155.9140625 C-55.97217462 153.64478334 -55.97217462 153.64478334 -59.484375 153.3984375 C-60.90600014 153.37066152 -62.32814507 153.36413172 -63.75 153.375 C-89.06682746 152.71850773 -113.90419518 143.15781581 -131.66796875 124.75390625 C-148.18105303 105.25353035 -148.18105303 105.25353035 -149.4375 94.125 C-149.293125 93.09375 -149.14875 92.0625 -149 91 C-146 89 -146 89 -142.07421875 89.65625 C-137.36261179 90.84438608 -132.69691273 92.20329953 -128.03271484 93.56420898 C-113.82300439 97.69353576 -101.02105129 100.12016841 -86.1875 100.25 C-84.73609619 100.2643811 -84.73609619 100.2643811 -83.25537109 100.27905273 C-75.80906381 100.2438138 -69.40292347 99.41598158 -62.5078125 96.546875 C-58.62450997 92.60308489 -59.03629846 88.59564609 -58.875 83.25 C-58.74732534 81.15567905 -58.6105709 79.0618923 -58.46484375 76.96875 C-58.39378418 75.94523437 -58.32272461 74.92171875 -58.24951172 73.8671875 C-56.7352913 56.46698728 -48.73025183 38.84260329 -37 26 C-36.54625 25.40703125 -36.0925 24.8140625 -35.625 24.203125 C-27.24488787 13.32893188 -12.94689342 4.31563114 0 0 Z M-42 110 C-45.81614313 114.73728112 -46.26661765 120.16647051 -45.85546875 126.078125 C-44.79820182 131.98023049 -41.55618546 136.20897546 -37 140 C-30.96839874 143.44024664 -24.65648228 143.65844098 -18 142 C-12.14069123 139.01506912 -8.15162035 134.77435812 -5.625 128.6875 C-4.48910296 121.98570744 -5.02581254 117.04820899 -8.625 111.1875 C-12.60833711 105.76599842 -16.71612455 103.18272924 -23.4375 102.0625 C-31.09599065 101.5284896 -36.65936238 104.78356325 -42 110 Z " fill="#1E88E5" transform="translate(207,58)"/>
</svg>
